<svg width="20" height="20" viewBox="0 0 20 20" fill="none" xmlns="http://www.w3.org/2000/svg">
<path d="M2 9V18C2 18.2652 2.10536 18.5196 2.29289 18.7071C2.48043 18.8946 2.73478 19 3 19H17C17.2652 19 17.5196 18.8946 17.7071 18.7071C17.8946 18.5196 18 18.2652 18 18V9.41C18.0012 9.26715 17.9669 9.12624 17.9 9H2Z" fill="#71717A"/>
<path d="M6 13H8M2 9H17.9M3 19H17C17.2652 19 17.5196 18.8946 17.7071 18.7071C17.8946 18.5196 18 18.2652 18 18V9.41C17.9989 9.14766 17.8947 8.89626 17.71 8.71L10.29 1.29C10.1037 1.10526 9.85234 1.0011 9.59 1H3C2.73478 1 2.48043 1.10536 2.29289 1.29289C2.10536 1.48043 2 1.73478 2 2V18C2 18.2652 2.10536 18.5196 2.29289 18.7071C2.48043 18.8946 2.73478 19 3 19Z" stroke="#71717A" stroke-width="2" stroke-linecap="round" stroke-linejoin="round"/>
</svg>
