<svg width="24" height="24" viewBox="0 0 24 24" fill="none" xmlns="http://www.w3.org/2000/svg">
<g clip-path="url(#clip0_23685_321)">
<path d="M3 12H19.5C20.3284 12 21 12.6716 21 13.5V16" stroke="#71717A" stroke-width="1.5" stroke-linecap="round" stroke-linejoin="round"/>
<path d="M12 5C13.1046 5 14 4.10457 14 3C14 1.89543 13.1046 1 12 1C10.8954 1 10 1.89543 10 3C10 4.10457 10.8954 5 12 5Z" stroke="#71717A" stroke-width="1.5"/>
<path d="M3 5C4.10457 5 5 4.10457 5 3C5 1.89543 4.10457 1 3 1C1.89543 1 1 1.89543 1 3C1 4.10457 1.89543 5 3 5Z" stroke="#71717A" stroke-width="1.5"/>
<path d="M12 23C13.1046 23 14 22.1046 14 21C14 19.8954 13.1046 19 12 19C10.8954 19 10 19.8954 10 21C10 22.1046 10.8954 23 12 23Z" stroke="#71717A" stroke-width="1.5"/>
<path d="M21 23C22.1046 23 23 22.1046 23 21C23 19.8954 22.1046 19 21 19C19.8954 19 19 19.8954 19 21C19 22.1046 19.8954 23 21 23Z" stroke="#71717A" stroke-width="1.5"/>
<path d="M3 23C4.10457 23 5 22.1046 5 21C5 19.8954 4.10457 19 3 19C1.89543 19 1 19.8954 1 21C1 22.1046 1.89543 23 3 23Z" stroke="#71717A" stroke-width="1.5"/>
<path d="M3 8V12V14.25V16" stroke="#71717A" stroke-width="1.5" stroke-linecap="round" stroke-linejoin="round"/>
<path d="M12 7.5V12V16" stroke="#71717A" stroke-width="1.5" stroke-linecap="round" stroke-linejoin="round"/>
</g>
<defs>
<clipPath id="clip0_23685_321">
<rect width="24" height="24" fill="white"/>
</clipPath>
</defs>
</svg>
