<svg width="100" height="100" viewBox="0 0 100 100" fill="none" xmlns="http://www.w3.org/2000/svg">
<circle cx="50" cy="50" r="49" stroke="#FDE047" stroke-width="2"/>
<path d="M93.4726 74L6 73.5L2.14371 63.5262C2.04975 63.1817 2.04975 62.8183 2.14371 62.4738L4.59826 53.4738C4.83557 52.6036 5.62589 52 6.52779 52H93.4726C94.3745 52 95.1648 52.6036 95.4021 53.4738L97.8567 62.4738C97.9506 62.8183 97.9506 63.1817 97.8567 63.5262L93.4726 74Z" fill="#FDE047"/>
<path d="M23.0002 39C23.0002 36.2386 25.2388 34 28.0002 34H72.0002C74.2093 34 76.0002 35.7909 76.0002 38V52H23.0002V39Z" fill="#FDE047"/>
<path d="M24.0002 49C24.0002 51.2091 22.2093 53 20.0002 53C17.7911 53 16.0002 51.2091 16.0002 49C16.0002 46.7909 17.7911 45 20.0002 45C22.2093 45 24.0002 46.7909 24.0002 49Z" fill="#FDE047"/>
<path d="M83.0002 49C83.0002 51.2091 81.2093 53 79.0002 53C76.7911 53 75.0002 51.2091 75.0002 49C75.0002 46.7909 76.7911 45 79.0002 45C81.2093 45 83.0002 46.7909 83.0002 49Z" fill="#FDE047"/>
<path d="M25.0002 42C25.0002 40.8954 25.8956 40 27.0002 40H72.0002C73.1048 40 74.0002 40.8954 74.0002 42V48C74.0002 49.1046 73.1048 50 72.0002 50H27.0002C25.8956 50 25.0002 49.1046 25.0002 48V42Z" fill="white"/>
<mask id="path-3-outside-1_23685_307" maskUnits="userSpaceOnUse" x="25" y="13" width="47" height="17" fill="black">
<rect fill="white" x="25" y="13" width="47" height="17"/>
<path d="M33.12 16.36V29H31.16V16.36H26.32V14.66H37.96V16.36H33.12ZM49.8992 29H47.7592L46.3192 24.7H40.6392L39.0792 29H37.0992L42.4992 14.66H44.6992L49.8992 29ZM41.1992 23.12H45.6792L43.4992 16.78L41.1992 23.12ZM57.2791 21.64L52.4791 14.66H54.8991L58.5591 20.14L62.1991 14.66H64.5191L59.6991 21.64L64.7391 29H62.3391L58.4591 23.1L54.4991 29H52.1591L57.2791 21.64ZM70.5989 29H68.6389V14.66H70.5989V29Z"/>
</mask>
<path d="M33.12 16.36V15.36H32.12V16.36H33.12ZM33.12 29V30H34.12V29H33.12ZM31.16 29H30.16V30H31.16V29ZM31.16 16.36H32.16V15.36H31.16V16.36ZM26.32 16.36H25.32V17.36H26.32V16.36ZM26.32 14.66V13.66H25.32V14.66H26.32ZM37.96 14.66H38.96V13.66H37.96V14.66ZM37.96 16.36V17.36H38.96V16.36H37.96ZM32.12 16.36V29H34.12V16.36H32.12ZM33.12 28H31.16V30H33.12V28ZM32.16 29V16.36H30.16V29H32.16ZM31.16 15.36H26.32V17.36H31.16V15.36ZM27.32 16.36V14.66H25.32V16.36H27.32ZM26.32 15.66H37.96V13.66H26.32V15.66ZM36.96 14.66V16.36H38.96V14.66H36.96ZM37.96 15.36H33.12V17.36H37.96V15.36ZM49.8992 29V30H51.3256L50.8393 28.6591L49.8992 29ZM47.7592 29L46.811 29.3176L47.0395 30H47.7592V29ZM46.3192 24.7L47.2675 24.3825L47.0389 23.7H46.3192V24.7ZM40.6392 24.7V23.7H39.9382L39.6992 24.359L40.6392 24.7ZM39.0792 29V30H39.7802L40.0193 29.341L39.0792 29ZM37.0992 29L36.1634 28.6476L35.6541 30H37.0992V29ZM42.4992 14.66V13.66H41.8072L41.5634 14.3076L42.4992 14.66ZM44.6992 14.66L45.6393 14.3191L45.4003 13.66H44.6992V14.66ZM41.1992 23.12L40.2592 22.779L39.7727 24.12H41.1992V23.12ZM45.6792 23.12V24.12H47.0805L46.6249 22.7948L45.6792 23.12ZM43.4992 16.78L44.4449 16.4548L43.5245 13.7781L42.5592 16.439L43.4992 16.78ZM49.8992 28H47.7592V30H49.8992V28ZM48.7075 28.6824L47.2675 24.3825L45.371 25.0176L46.811 29.3176L48.7075 28.6824ZM46.3192 23.7H40.6392V25.7H46.3192V23.7ZM39.6992 24.359L38.1392 28.659L40.0193 29.341L41.5793 25.041L39.6992 24.359ZM39.0792 28H37.0992V30H39.0792V28ZM38.0351 29.3524L43.4351 15.0124L41.5634 14.3076L36.1634 28.6476L38.0351 29.3524ZM42.4992 15.66H44.6992V13.66H42.4992V15.66ZM43.7591 15.0009L48.9591 29.3409L50.8393 28.6591L45.6393 14.3191L43.7591 15.0009ZM41.1992 24.12H45.6792V22.12H41.1992V24.12ZM46.6249 22.7948L44.4449 16.4548L42.5536 17.1052L44.7336 23.4452L46.6249 22.7948ZM42.5592 16.439L40.2592 22.779L42.1393 23.461L44.4393 17.121L42.5592 16.439ZM57.2791 21.64L58.1 22.2111L58.4949 21.6433L58.103 21.0734L57.2791 21.64ZM52.4791 14.66V13.66H50.5778L51.6551 15.2266L52.4791 14.66ZM54.8991 14.66L55.7306 14.1046L55.4337 13.66H54.8991V14.66ZM58.5591 20.14L57.7275 20.6954L58.5613 21.9439L59.392 20.6933L58.5591 20.14ZM62.1991 14.66V13.66H61.6628L61.3661 14.1067L62.1991 14.66ZM64.5191 14.66L65.3419 15.2282L66.4249 13.66H64.5191V14.66ZM59.6991 21.64L58.8762 21.0718L58.4854 21.6376L58.874 22.205L59.6991 21.64ZM64.7391 29V30H66.6358L65.5642 28.435L64.7391 29ZM62.3391 29L61.5035 29.5495L61.7998 30H62.3391V29ZM58.4591 23.1L59.2946 22.5505L58.4676 21.293L57.6287 22.5427L58.4591 23.1ZM54.4991 29V30H55.0322L55.3294 29.5573L54.4991 29ZM52.1591 29L51.3382 28.4289L50.2452 30H52.1591V29ZM58.103 21.0734L53.303 14.0934L51.6551 15.2266L56.4551 22.2066L58.103 21.0734ZM52.4791 15.66H54.8991V13.66H52.4791V15.66ZM54.0675 15.2154L57.7275 20.6954L59.3906 19.5846L55.7306 14.1046L54.0675 15.2154ZM59.392 20.6933L63.032 15.2133L61.3661 14.1067L57.7261 19.5867L59.392 20.6933ZM62.1991 15.66H64.5191V13.66H62.1991V15.66ZM63.6962 14.0918L58.8762 21.0718L60.5219 22.2082L65.3419 15.2282L63.6962 14.0918ZM58.874 22.205L63.914 29.565L65.5642 28.435L60.5242 21.075L58.874 22.205ZM64.7391 28H62.3391V30H64.7391V28ZM63.1746 28.4505L59.2946 22.5505L57.6235 23.6495L61.5035 29.5495L63.1746 28.4505ZM57.6287 22.5427L53.6687 28.4427L55.3294 29.5573L59.2894 23.6573L57.6287 22.5427ZM54.4991 28H52.1591V30H54.4991V28ZM52.98 29.5711L58.1 22.2111L56.4582 21.0689L51.3382 28.4289L52.98 29.5711ZM70.5989 29V30H71.5989V29H70.5989ZM68.6389 29H67.6389V30H68.6389V29ZM68.6389 14.66V13.66H67.6389V14.66H68.6389ZM70.5989 14.66H71.5989V13.66H70.5989V14.66ZM70.5989 28H68.6389V30H70.5989V28ZM69.6389 29V14.66H67.6389V29H69.6389ZM68.6389 15.66H70.5989V13.66H68.6389V15.66ZM69.5989 14.66V29H71.5989V14.66H69.5989Z" fill="#FDE047" mask="url(#path-3-outside-1_23685_307)"/>
</svg>
